%TF.GenerationSoftware,KiCad,Pcbnew,10.0.1*%
%TF.CreationDate,2026-07-16T23:43:29+08:00*%
%TF.ProjectId,esp32-tallighty,65737033-322d-4746-916c-6c6967687479,rev?*%
%TF.SameCoordinates,Original*%
%TF.FileFunction,Soldermask,Bot*%
%TF.FilePolarity,Negative*%
%FSLAX46Y46*%
G04 Gerber Fmt 4.6, Leading zero omitted, Abs format (unit mm)*
G04 Created by KiCad (PCBNEW 10.0.1) date 2026-07-16 23:43:29*
%MOMM*%
%LPD*%
G01*
G04 APERTURE LIST*
G04 Aperture macros list*
%AMRoundRect*
0 Rectangle with rounded corners*
0 $1 Rounding radius*
0 $2 $3 $4 $5 $6 $7 $8 $9 X,Y pos of 4 corners*
0 Add a 4 corners polygon primitive as box body*
4,1,4,$2,$3,$4,$5,$6,$7,$8,$9,$2,$3,0*
0 Add four circle primitives for the rounded corners*
1,1,$1+$1,$2,$3*
1,1,$1+$1,$4,$5*
1,1,$1+$1,$6,$7*
1,1,$1+$1,$8,$9*
0 Add four rect primitives between the rounded corners*
20,1,$1+$1,$2,$3,$4,$5,0*
20,1,$1+$1,$4,$5,$6,$7,0*
20,1,$1+$1,$6,$7,$8,$9,0*
20,1,$1+$1,$8,$9,$2,$3,0*%
G04 Aperture macros list end*
%ADD10RoundRect,0.250000X-0.650000X0.325000X-0.650000X-0.325000X0.650000X-0.325000X0.650000X0.325000X0*%
%ADD11RoundRect,0.250000X0.312500X0.625000X-0.312500X0.625000X-0.312500X-0.625000X0.312500X-0.625000X0*%
%ADD12C,1.552000*%
%ADD13C,0.700000*%
%ADD14C,4.400000*%
%ADD15C,2.200000*%
%ADD16C,1.700000*%
%ADD17RoundRect,0.250000X-0.600000X-0.725000X0.600000X-0.725000X0.600000X0.725000X-0.600000X0.725000X0*%
%ADD18O,1.700000X1.950000*%
%ADD19RoundRect,0.250000X0.600000X0.725000X-0.600000X0.725000X-0.600000X-0.725000X0.600000X-0.725000X0*%
G04 APERTURE END LIST*
D10*
%TO.C,C1*%
X150500000Y-130475000D03*
X150500000Y-127525000D03*
%TD*%
%TO.C,C2*%
X133250000Y-130475000D03*
X133250000Y-127525000D03*
%TD*%
D11*
%TO.C,R1*%
X135537500Y-126500000D03*
X138462500Y-126500000D03*
%TD*%
%TO.C,R3*%
X148462500Y-126500000D03*
X145537500Y-126500000D03*
%TD*%
%TO.C,R2*%
X143462500Y-126500000D03*
X140537500Y-126500000D03*
%TD*%
%TO.C,R6*%
X145537500Y-130000000D03*
X148462500Y-130000000D03*
%TD*%
%TO.C,R5*%
X140537500Y-130000000D03*
X143462500Y-130000000D03*
%TD*%
%TO.C,R4*%
X135537500Y-130000000D03*
X138462500Y-130000000D03*
%TD*%
D12*
%TO.C,U1*%
X130880000Y-109380000D03*
X128340000Y-109380000D03*
X125800000Y-109380000D03*
X123260000Y-109380000D03*
X118180000Y-109380000D03*
X120720000Y-109380000D03*
X113100000Y-124620000D03*
X113100000Y-109380000D03*
X115640000Y-124620000D03*
X118180000Y-124620000D03*
X120720000Y-124620000D03*
X123260000Y-124620000D03*
X125800000Y-124620000D03*
X128340000Y-124620000D03*
X130880000Y-124620000D03*
X115640000Y-109380000D03*
%TD*%
D13*
%TO.C,H1*%
X112850000Y-103000000D03*
X113333274Y-101833274D03*
X113333274Y-104166726D03*
X114500000Y-101350000D03*
D14*
X114500000Y-103000000D03*
D13*
X114500000Y-104650000D03*
X115666726Y-101833274D03*
X115666726Y-104166726D03*
X116150000Y-103000000D03*
%TD*%
%TO.C,H3*%
X160350000Y-103000000D03*
X160833274Y-101833274D03*
X160833274Y-104166726D03*
X162000000Y-101350000D03*
D14*
X162000000Y-103000000D03*
D13*
X162000000Y-104650000D03*
X163166726Y-101833274D03*
X163166726Y-104166726D03*
X163650000Y-103000000D03*
%TD*%
%TO.C,H2*%
X112850000Y-130500000D03*
X113333274Y-129333274D03*
X113333274Y-131666726D03*
X114500000Y-128850000D03*
D14*
X114500000Y-130500000D03*
D13*
X114500000Y-132150000D03*
X115666726Y-129333274D03*
X115666726Y-131666726D03*
X116150000Y-130500000D03*
%TD*%
%TO.C,H4*%
X160350000Y-123000000D03*
X160833274Y-121833274D03*
X160833274Y-124166726D03*
X162000000Y-121350000D03*
D14*
X162000000Y-123000000D03*
D13*
X162000000Y-124650000D03*
X163166726Y-121833274D03*
X163166726Y-124166726D03*
X163650000Y-123000000D03*
%TD*%
D15*
%TO.C,SW2*%
X167325000Y-113375000D03*
X167325000Y-120375000D03*
D16*
X169825000Y-114625000D03*
X169825000Y-119125000D03*
%TD*%
D15*
%TO.C,SW3*%
X167325000Y-124625000D03*
X167325000Y-131625000D03*
D16*
X169825000Y-125875000D03*
X169825000Y-130375000D03*
%TD*%
D15*
%TO.C,SW1*%
X167325000Y-102375000D03*
X167325000Y-109375000D03*
D16*
X169825000Y-103625000D03*
X169825000Y-108125000D03*
%TD*%
D17*
%TO.C,Front*%
X156500000Y-129000000D03*
D18*
X161500000Y-129000000D03*
X159000000Y-129000000D03*
%TD*%
D19*
%TO.C,Back*%
X127000000Y-129000000D03*
D18*
X122000000Y-129000000D03*
X124500000Y-129000000D03*
%TD*%
M02*
