%TF.GenerationSoftware,KiCad,Pcbnew,10.0.1*%
%TF.CreationDate,2026-07-16T23:43:29+08:00*%
%TF.ProjectId,esp32-tallighty,65737033-322d-4746-916c-6c6967687479,rev?*%
%TF.SameCoordinates,Original*%
%TF.FileFunction,Legend,Bot*%
%TF.FilePolarity,Positive*%
%FSLAX46Y46*%
G04 Gerber Fmt 4.6, Leading zero omitted, Abs format (unit mm)*
G04 Created by KiCad (PCBNEW 10.0.1) date 2026-07-16 23:43:29*
%MOMM*%
%LPD*%
G01*
G04 APERTURE LIST*
%ADD10C,0.150000*%
%ADD11C,0.120000*%
G04 APERTURE END LIST*
D10*
X130999999Y-132954819D02*
X130666666Y-133954819D01*
X130666666Y-133954819D02*
X130333333Y-132954819D01*
X129666666Y-133431009D02*
X129523809Y-133478628D01*
X129523809Y-133478628D02*
X129476190Y-133526247D01*
X129476190Y-133526247D02*
X129428571Y-133621485D01*
X129428571Y-133621485D02*
X129428571Y-133764342D01*
X129428571Y-133764342D02*
X129476190Y-133859580D01*
X129476190Y-133859580D02*
X129523809Y-133907200D01*
X129523809Y-133907200D02*
X129619047Y-133954819D01*
X129619047Y-133954819D02*
X129999999Y-133954819D01*
X129999999Y-133954819D02*
X129999999Y-132954819D01*
X129999999Y-132954819D02*
X129666666Y-132954819D01*
X129666666Y-132954819D02*
X129571428Y-133002438D01*
X129571428Y-133002438D02*
X129523809Y-133050057D01*
X129523809Y-133050057D02*
X129476190Y-133145295D01*
X129476190Y-133145295D02*
X129476190Y-133240533D01*
X129476190Y-133240533D02*
X129523809Y-133335771D01*
X129523809Y-133335771D02*
X129571428Y-133383390D01*
X129571428Y-133383390D02*
X129666666Y-133431009D01*
X129666666Y-133431009D02*
X129999999Y-133431009D01*
X128999999Y-132954819D02*
X128999999Y-133764342D01*
X128999999Y-133764342D02*
X128952380Y-133859580D01*
X128952380Y-133859580D02*
X128904761Y-133907200D01*
X128904761Y-133907200D02*
X128809523Y-133954819D01*
X128809523Y-133954819D02*
X128619047Y-133954819D01*
X128619047Y-133954819D02*
X128523809Y-133907200D01*
X128523809Y-133907200D02*
X128476190Y-133859580D01*
X128476190Y-133859580D02*
X128428571Y-133764342D01*
X128428571Y-133764342D02*
X128428571Y-132954819D01*
X127999999Y-133907200D02*
X127857142Y-133954819D01*
X127857142Y-133954819D02*
X127619047Y-133954819D01*
X127619047Y-133954819D02*
X127523809Y-133907200D01*
X127523809Y-133907200D02*
X127476190Y-133859580D01*
X127476190Y-133859580D02*
X127428571Y-133764342D01*
X127428571Y-133764342D02*
X127428571Y-133669104D01*
X127428571Y-133669104D02*
X127476190Y-133573866D01*
X127476190Y-133573866D02*
X127523809Y-133526247D01*
X127523809Y-133526247D02*
X127619047Y-133478628D01*
X127619047Y-133478628D02*
X127809523Y-133431009D01*
X127809523Y-133431009D02*
X127904761Y-133383390D01*
X127904761Y-133383390D02*
X127952380Y-133335771D01*
X127952380Y-133335771D02*
X127999999Y-133240533D01*
X127999999Y-133240533D02*
X127999999Y-133145295D01*
X127999999Y-133145295D02*
X127952380Y-133050057D01*
X127952380Y-133050057D02*
X127904761Y-133002438D01*
X127904761Y-133002438D02*
X127809523Y-132954819D01*
X127809523Y-132954819D02*
X127571428Y-132954819D01*
X127571428Y-132954819D02*
X127428571Y-133002438D01*
X126238094Y-133954819D02*
X126238094Y-132954819D01*
X126238094Y-132954819D02*
X125999999Y-132954819D01*
X125999999Y-132954819D02*
X125857142Y-133002438D01*
X125857142Y-133002438D02*
X125761904Y-133097676D01*
X125761904Y-133097676D02*
X125714285Y-133192914D01*
X125714285Y-133192914D02*
X125666666Y-133383390D01*
X125666666Y-133383390D02*
X125666666Y-133526247D01*
X125666666Y-133526247D02*
X125714285Y-133716723D01*
X125714285Y-133716723D02*
X125761904Y-133811961D01*
X125761904Y-133811961D02*
X125857142Y-133907200D01*
X125857142Y-133907200D02*
X125999999Y-133954819D01*
X125999999Y-133954819D02*
X126238094Y-133954819D01*
X124809523Y-133954819D02*
X124809523Y-133431009D01*
X124809523Y-133431009D02*
X124857142Y-133335771D01*
X124857142Y-133335771D02*
X124952380Y-133288152D01*
X124952380Y-133288152D02*
X125142856Y-133288152D01*
X125142856Y-133288152D02*
X125238094Y-133335771D01*
X124809523Y-133907200D02*
X124904761Y-133954819D01*
X124904761Y-133954819D02*
X125142856Y-133954819D01*
X125142856Y-133954819D02*
X125238094Y-133907200D01*
X125238094Y-133907200D02*
X125285713Y-133811961D01*
X125285713Y-133811961D02*
X125285713Y-133716723D01*
X125285713Y-133716723D02*
X125238094Y-133621485D01*
X125238094Y-133621485D02*
X125142856Y-133573866D01*
X125142856Y-133573866D02*
X124904761Y-133573866D01*
X124904761Y-133573866D02*
X124809523Y-133526247D01*
X124476189Y-133288152D02*
X124095237Y-133288152D01*
X124333332Y-132954819D02*
X124333332Y-133811961D01*
X124333332Y-133811961D02*
X124285713Y-133907200D01*
X124285713Y-133907200D02*
X124190475Y-133954819D01*
X124190475Y-133954819D02*
X124095237Y-133954819D01*
X123333332Y-133954819D02*
X123333332Y-133431009D01*
X123333332Y-133431009D02*
X123380951Y-133335771D01*
X123380951Y-133335771D02*
X123476189Y-133288152D01*
X123476189Y-133288152D02*
X123666665Y-133288152D01*
X123666665Y-133288152D02*
X123761903Y-133335771D01*
X123333332Y-133907200D02*
X123428570Y-133954819D01*
X123428570Y-133954819D02*
X123666665Y-133954819D01*
X123666665Y-133954819D02*
X123761903Y-133907200D01*
X123761903Y-133907200D02*
X123809522Y-133811961D01*
X123809522Y-133811961D02*
X123809522Y-133716723D01*
X123809522Y-133716723D02*
X123761903Y-133621485D01*
X123761903Y-133621485D02*
X123666665Y-133573866D01*
X123666665Y-133573866D02*
X123428570Y-133573866D01*
X123428570Y-133573866D02*
X123333332Y-133526247D01*
X122857141Y-133954819D02*
X122857141Y-132954819D01*
X122380951Y-133288152D02*
X122380951Y-133954819D01*
X122380951Y-133383390D02*
X122333332Y-133335771D01*
X122333332Y-133335771D02*
X122238094Y-133288152D01*
X122238094Y-133288152D02*
X122095237Y-133288152D01*
X122095237Y-133288152D02*
X121999999Y-133335771D01*
X121999999Y-133335771D02*
X121952380Y-133431009D01*
X121952380Y-133431009D02*
X121952380Y-133954819D01*
X120190475Y-133002438D02*
X120285713Y-132954819D01*
X120285713Y-132954819D02*
X120428570Y-132954819D01*
X120428570Y-132954819D02*
X120571427Y-133002438D01*
X120571427Y-133002438D02*
X120666665Y-133097676D01*
X120666665Y-133097676D02*
X120714284Y-133192914D01*
X120714284Y-133192914D02*
X120761903Y-133383390D01*
X120761903Y-133383390D02*
X120761903Y-133526247D01*
X120761903Y-133526247D02*
X120714284Y-133716723D01*
X120714284Y-133716723D02*
X120666665Y-133811961D01*
X120666665Y-133811961D02*
X120571427Y-133907200D01*
X120571427Y-133907200D02*
X120428570Y-133954819D01*
X120428570Y-133954819D02*
X120333332Y-133954819D01*
X120333332Y-133954819D02*
X120190475Y-133907200D01*
X120190475Y-133907200D02*
X120142856Y-133859580D01*
X120142856Y-133859580D02*
X120142856Y-133526247D01*
X120142856Y-133526247D02*
X120333332Y-133526247D01*
X119714284Y-133954819D02*
X119714284Y-132954819D01*
X119714284Y-132954819D02*
X119142856Y-133954819D01*
X119142856Y-133954819D02*
X119142856Y-132954819D01*
X118666665Y-133954819D02*
X118666665Y-132954819D01*
X118666665Y-132954819D02*
X118428570Y-132954819D01*
X118428570Y-132954819D02*
X118285713Y-133002438D01*
X118285713Y-133002438D02*
X118190475Y-133097676D01*
X118190475Y-133097676D02*
X118142856Y-133192914D01*
X118142856Y-133192914D02*
X118095237Y-133383390D01*
X118095237Y-133383390D02*
X118095237Y-133526247D01*
X118095237Y-133526247D02*
X118142856Y-133716723D01*
X118142856Y-133716723D02*
X118190475Y-133811961D01*
X118190475Y-133811961D02*
X118285713Y-133907200D01*
X118285713Y-133907200D02*
X118428570Y-133954819D01*
X118428570Y-133954819D02*
X118666665Y-133954819D01*
X130768990Y-130914285D02*
X130721371Y-130771428D01*
X130721371Y-130771428D02*
X130673752Y-130723809D01*
X130673752Y-130723809D02*
X130578514Y-130676190D01*
X130578514Y-130676190D02*
X130435657Y-130676190D01*
X130435657Y-130676190D02*
X130340419Y-130723809D01*
X130340419Y-130723809D02*
X130292800Y-130771428D01*
X130292800Y-130771428D02*
X130245180Y-130866666D01*
X130245180Y-130866666D02*
X130245180Y-131247618D01*
X130245180Y-131247618D02*
X131245180Y-131247618D01*
X131245180Y-131247618D02*
X131245180Y-130914285D01*
X131245180Y-130914285D02*
X131197561Y-130819047D01*
X131197561Y-130819047D02*
X131149942Y-130771428D01*
X131149942Y-130771428D02*
X131054704Y-130723809D01*
X131054704Y-130723809D02*
X130959466Y-130723809D01*
X130959466Y-130723809D02*
X130864228Y-130771428D01*
X130864228Y-130771428D02*
X130816609Y-130819047D01*
X130816609Y-130819047D02*
X130768990Y-130914285D01*
X130768990Y-130914285D02*
X130768990Y-131247618D01*
X130245180Y-129819047D02*
X130768990Y-129819047D01*
X130768990Y-129819047D02*
X130864228Y-129866666D01*
X130864228Y-129866666D02*
X130911847Y-129961904D01*
X130911847Y-129961904D02*
X130911847Y-130152380D01*
X130911847Y-130152380D02*
X130864228Y-130247618D01*
X130292800Y-129819047D02*
X130245180Y-129914285D01*
X130245180Y-129914285D02*
X130245180Y-130152380D01*
X130245180Y-130152380D02*
X130292800Y-130247618D01*
X130292800Y-130247618D02*
X130388038Y-130295237D01*
X130388038Y-130295237D02*
X130483276Y-130295237D01*
X130483276Y-130295237D02*
X130578514Y-130247618D01*
X130578514Y-130247618D02*
X130626133Y-130152380D01*
X130626133Y-130152380D02*
X130626133Y-129914285D01*
X130626133Y-129914285D02*
X130673752Y-129819047D01*
X130292800Y-128914285D02*
X130245180Y-129009523D01*
X130245180Y-129009523D02*
X130245180Y-129199999D01*
X130245180Y-129199999D02*
X130292800Y-129295237D01*
X130292800Y-129295237D02*
X130340419Y-129342856D01*
X130340419Y-129342856D02*
X130435657Y-129390475D01*
X130435657Y-129390475D02*
X130721371Y-129390475D01*
X130721371Y-129390475D02*
X130816609Y-129342856D01*
X130816609Y-129342856D02*
X130864228Y-129295237D01*
X130864228Y-129295237D02*
X130911847Y-129199999D01*
X130911847Y-129199999D02*
X130911847Y-129009523D01*
X130911847Y-129009523D02*
X130864228Y-128914285D01*
X130245180Y-128485713D02*
X131245180Y-128485713D01*
X130626133Y-128390475D02*
X130245180Y-128104761D01*
X130911847Y-128104761D02*
X130530895Y-128485713D01*
%TO.C,C1*%
D11*
X151410000Y-128288748D02*
X151410000Y-129711252D01*
X149590000Y-128288748D02*
X149590000Y-129711252D01*
%TO.C,C2*%
X134160000Y-128288748D02*
X134160000Y-129711252D01*
X132340000Y-128288748D02*
X132340000Y-129711252D01*
%TO.C,R1*%
X137727064Y-127410000D02*
X136272936Y-127410000D01*
X137727064Y-125590000D02*
X136272936Y-125590000D01*
%TO.C,R3*%
X147727064Y-125590000D02*
X146272936Y-125590000D01*
X147727064Y-127410000D02*
X146272936Y-127410000D01*
%TO.C,R2*%
X142727064Y-125590000D02*
X141272936Y-125590000D01*
X142727064Y-127410000D02*
X141272936Y-127410000D01*
%TO.C,R6*%
X147727064Y-130910000D02*
X146272936Y-130910000D01*
X147727064Y-129090000D02*
X146272936Y-129090000D01*
%TO.C,R5*%
X142727064Y-130910000D02*
X141272936Y-130910000D01*
X142727064Y-129090000D02*
X141272936Y-129090000D01*
%TO.C,R4*%
X137727064Y-130910000D02*
X136272936Y-130910000D01*
X137727064Y-129090000D02*
X136272936Y-129090000D01*
%TO.C,Back*%
X119450000Y-128800000D02*
X120200000Y-128800001D01*
X120200000Y-128800001D02*
X120200000Y-131750000D01*
X120200000Y-131750000D02*
X124500000Y-131750000D01*
X128600000Y-126250000D02*
X129850000Y-126250000D01*
X128800000Y-128800000D02*
X128800000Y-131750000D01*
X128800000Y-131750000D02*
X124500000Y-131750000D01*
X129550000Y-128800000D02*
X128800000Y-128800000D01*
X129850000Y-126250000D02*
X129850000Y-127500000D01*
X121250000Y-127299999D02*
X119450000Y-127300000D01*
X119450000Y-126550000D01*
X121250000Y-126549999D01*
X121250000Y-127299999D01*
X126249999Y-127300000D02*
X122750000Y-127300000D01*
X122750000Y-126550000D01*
X126250000Y-126549999D01*
X126249999Y-127300000D01*
X129550000Y-126550000D02*
X129550000Y-127300000D01*
X127750001Y-127300000D01*
X127750000Y-126549999D01*
X129550000Y-126550000D01*
X129560000Y-132510000D02*
X119440000Y-132510000D01*
X119440000Y-126540000D01*
X129560000Y-126540000D01*
X129560000Y-132510000D01*
%TD*%
M02*
