M48
; DRILL file KiCad 10.0.1 date 2026-07-16T23:43:27
; FORMAT={-:-/ absolute / metric / decimal}
; #@! TF.CreationDate,2026-07-16T23:43:27+08:00
; #@! TF.GenerationSoftware,Kicad,Pcbnew,10.0.1
; #@! TF.FileFunction,Plated,1,2,PTH
FMAT,2
METRIC
; #@! TA.AperFunction,Plated,PTH,ViaDrill
T1C0.300
; #@! TA.AperFunction,Plated,PTH,ComponentDrill
T2C0.400
; #@! TA.AperFunction,Plated,PTH,ComponentDrill
T3C0.840
; #@! TA.AperFunction,Plated,PTH,ComponentDrill
T4C0.950
; #@! TA.AperFunction,Plated,PTH,ComponentDrill
T5C1.000
; #@! TA.AperFunction,Plated,PTH,ComponentDrill
T6C1.300
; #@! TA.AperFunction,Plated,PTH,ComponentDrill
T7C2.200
%
G90
G05
T1
X133.25Y-127.525
X150.5Y-127.525
T2
X112.85Y-103.0
X112.85Y-130.5
X113.333Y-101.833
X113.333Y-104.167
X113.333Y-129.333
X113.333Y-131.667
X114.5Y-101.35
X114.5Y-104.65
X114.5Y-128.85
X114.5Y-132.15
X115.667Y-101.833
X115.667Y-104.167
X115.667Y-129.333
X115.667Y-131.667
X116.15Y-103.0
X116.15Y-130.5
X160.35Y-103.0
X160.35Y-123.0
X160.833Y-101.833
X160.833Y-104.167
X160.833Y-121.833
X160.833Y-124.167
X162.0Y-101.35
X162.0Y-104.65
X162.0Y-121.35
X162.0Y-124.65
X163.167Y-101.833
X163.167Y-104.167
X163.167Y-121.833
X163.167Y-124.167
X163.65Y-103.0
X163.65Y-123.0
T3
X113.1Y-109.38
X113.1Y-124.62
X115.64Y-109.38
X115.64Y-124.62
X118.18Y-109.38
X118.18Y-124.62
X120.72Y-109.38
X120.72Y-124.62
X123.26Y-109.38
X123.26Y-124.62
X125.8Y-109.38
X125.8Y-124.62
X128.34Y-109.38
X128.34Y-124.62
X130.88Y-109.38
X130.88Y-124.62
T4
X122.0Y-129.0
X124.5Y-129.0
X127.0Y-129.0
X156.5Y-129.0
X159.0Y-129.0
X161.5Y-129.0
T5
X169.825Y-103.625
X169.825Y-108.125
X169.825Y-114.625
X169.825Y-119.125
X169.825Y-125.875
X169.825Y-130.375
T6
X167.325Y-102.375
X167.325Y-109.375
X167.325Y-113.375
X167.325Y-120.375
X167.325Y-124.625
X167.325Y-131.625
T7
X114.5Y-103.0
X114.5Y-130.5
X162.0Y-103.0
X162.0Y-123.0
M30
